<svg xmlns="http://www.w3.org/2000/svg" viewBox="0 0 100 100" fill-rule="evenodd"><rect x="0" y="0" width="100" height="100" fill="#fff352" rx="50" ry="50"></rect><g class="t-group-origins"><path d="M91.61 74C79.74 70.51 77 56.61 76.41 52.43a1.48 1.48 0 0 0 0-.18A98.21 98.21 0 0 0 82 17.3a3.53 3.53 0 0 0-5.34-3.07 100.32 100.32 0 0 0-14.89 10.21 30.81 30.81 0 0 0-11.07-6.31C21.94 9.08 10 33.73 9.86 34a1.5 1.5 0 0 0 2 2c2-.92 7.93-2.87 11.73-.88 2 1 3.22 3 3.74 6a13.82 13.82 0 0 1-2.67 10.37C22 55.25 16.23 60.13 4.27 62a1.5 1.5 0 0 0 .23 3h.24c13-2.05 19.33-7.52 22.35-11.74a16.79 16.79 0 0 0 3.19-12.63c-.68-3.94-2.46-6.69-5.3-8.18-3.32-1.74-7.37-1.31-10.33-.57A32.68 32.68 0 0 1 21.21 25c7.92-6.13 17.54-7.47 28.59-4a27.68 27.68 0 0 1 9.66 5.42A82.93 82.93 0 0 0 42.12 47.2C33.88 61.54 28.24 84.35 28 85.31a1.5 1.5 0 0 0 .29 1.29 1.54 1.54 0 0 0 1.2.56l9-.16 4.44 7.81a1.5 1.5 0 0 0 1.09.74h.21a1.5 1.5 0 0 0 1-.42C46 94.47 62.8 78.1 71 63.79c1.23-2.15 2.33-4.32 3.3-6.5 1.7 6.48 5.89 16.48 16.46 19.61a1.5 1.5 0 1 0 .85-2.9Zm-23.2-11.7c-6.67 11.61-19.63 25.07-23.87 29.34l-3.91-6.88a1.5 1.5 0 0 0-1.3-.76l-7.9.14C33 78.31 38 60.33 44.72 48.69 54.85 31 71.48 20.55 78.16 16.86a.55.55 0 0 1 .89.51c.17 7.63-.5 27.27-10.64 44.93Z" stroke-width="0" stroke="#ffffff" fill="#ffffff" stroke-width-old="0"></path><path d="M74.25 25.2a1.5 1.5 0 0 0-2 .55L42.63 77.06a1.5 1.5 0 0 0 2.6 1.5L74.8 27.25a1.5 1.5 0 0 0-.55-2.05Z" stroke-width="0" stroke="#ffffff" fill="#ffffff" stroke-width-old="0"></path></g></svg>
